<svg
  width="20"
  height="20"
  viewBox="0 0 20 20"
  xmlns="http://www.w3.org/2000/svg"
  fill="none"
  stroke="currentColor"
  strokeWidth="1.5"
  strokeLinecap="round"
  strokeLinejoin="round"
>
  <path d="M10 1.75V3.0625C6.8125 3.4375 4.5 6.0625 4.5 9.25V14.5H3.5C3.09 14.5 2.75 14.84 2.75 15.25C2.75 15.66 3.09 16 3.5 16H16.5C16.91 16 17.25 15.66 17.25 15.25C17.25 14.84 16.91 14.5 16.5 14.5H15.5V9.25C15.5 6.0625 13.1875 3.4375 10 3.0625V1.75C10 1.3375 9.66 1 9.25 1H10.75C10.34 1 10 1.3375 10 1.75Z" />
  <path d="M5.5 14.5V9.25C5.5 6.625 7.375 4.5 10 4.5C12.625 4.5 14.5 6.625 14.5 9.25V14.5H5.5Z" strokeDasharray="1 0" />
  <path d="M8.5 18.25C8.5 17.84 8.84 17.5 9.25 17.5H10.75C11.16 17.5 11.5 17.84 11.5 18.25C11.5 18.66 11.16 19 10.75 19H9.25C8.84 19 8.5 18.66 8.5 18.25Z" />
</svg>