<svg
  xmlns="http://www.w3.org/2000/svg"
  width="20"
  height="20"
  viewBox="0 0 20 20"
  fill="none"
>
  <path
    d="M16.875 2.5H3.125C2.43125 2.5 1.875 3.05625 1.875 3.75V13.75C1.875 14.4438 2.43125 15 3.125 15H7.5V17.5H12.5V15H16.875C17.5687 15 18.125 14.4438 18.125 13.75V3.75C18.125 3.05625 17.5687 2.5 16.875 2.5ZM16.875 13.75H3.125V3.75H16.875V13.75Z"
    fill="currentColor"
  />
  <path
    d="M5 6.25H6.875V8.125H5V6.25ZM8.75 6.25H10.625V8.125H8.75V6.25ZM12.5 6.25H15V8.125H12.5V6.25ZM5 9.375H7.5V11.25H5V9.375ZM8.75 9.375H15V11.25H8.75V9.375Z"
    fill="currentColor"
  />
</svg> 